<?xml version="1.0" encoding="UTF-8" standalone="no"?>
<!DOCTYPE svg PUBLIC "-//W3C//DTD SVG 1.1//EN" "http://www.w3.org/Graphics/SVG/1.1/DTD/svg11.dtd">
<svg version="1.1" xmlns="http://www.w3.org/2000/svg" xmlns:xlink="http://www.w3.org/1999/xlink" preserveAspectRatio="xMidYMid meet" viewBox="0 0 640 640" width="640" height="640"><defs><path d="M640 320C640 496.61 496.61 640 320 640C143.39 640 0 496.61 0 320C0 143.39 143.39 0 320 0C496.61 0 640 143.39 640 320Z" id="jX2akG4Ks"></path><path d="M160.19 117.99C160.19 129.85 150.57 139.47 138.71 139.47C126.86 139.47 117.24 129.85 117.24 117.99C117.24 106.14 126.86 96.52 138.71 96.52C150.57 96.52 160.19 106.14 160.19 117.99Z" id="b2FpYgL2Mz"></path><path d="M211.13 324.64C211.13 336.49 201.51 346.11 189.65 346.11C177.8 346.11 168.18 336.49 168.18 324.64C168.18 312.78 177.8 303.16 189.65 303.16C201.51 303.16 211.13 312.78 211.13 324.64Z" id="bdTktavUF"></path><path d="M355.83 509.67C355.83 521.52 346.2 531.15 334.35 531.15C322.5 531.15 312.87 521.52 312.87 509.67C312.87 497.82 322.5 488.19 334.35 488.19C346.2 488.19 355.83 497.82 355.83 509.67Z" id="b929Qv2mJ"></path><path d="M307.64 570.14C307.64 581.99 298.02 591.62 286.16 591.62C274.31 591.62 264.69 581.99 264.69 570.14C264.69 558.29 274.31 548.66 286.16 548.66C298.02 548.66 307.64 558.29 307.64 570.14Z" id="bCXzTfNZp"></path><path d="M224.35 511.68C224.35 523.54 214.73 533.16 202.87 533.16C191.02 533.16 181.4 523.54 181.4 511.68C181.4 499.83 191.02 490.21 202.87 490.21C214.73 490.21 224.35 499.83 224.35 511.68Z" id="czmJBicxF"></path><path d="M377.3 212.29C377.3 224.14 367.68 233.76 355.83 233.76C343.97 233.76 334.35 224.14 334.35 212.29C334.35 200.43 343.97 190.81 355.83 190.81C367.68 190.81 377.3 200.43 377.3 212.29Z" id="ah74UJb9"></path><path d="M471.2 372.09C471.2 383.95 461.57 393.57 449.72 393.57C437.87 393.57 428.24 383.95 428.24 372.09C428.24 360.24 437.87 350.62 449.72 350.62C461.57 350.62 471.2 360.24 471.2 372.09Z" id="e2B5QSOCnv"></path><path d="M602.67 379.33C602.67 391.19 593.05 400.81 581.2 400.81C569.34 400.81 559.72 391.19 559.72 379.33C559.72 367.48 569.34 357.86 581.2 357.86C593.05 357.86 602.67 367.48 602.67 379.33Z" id="c4sFxdaXDU"></path><path d="M624.15 314.77C624.15 326.62 614.53 336.25 602.67 336.25C590.82 336.25 581.2 326.62 581.2 314.77C581.2 302.92 590.82 293.29 602.67 293.29C614.53 293.29 624.15 302.92 624.15 314.77Z" id="hccnOoI3T"></path><path d="M137.66 133.34L149.43 130.65L190.98 312.19L179.2 314.89L137.66 133.34Z" id="gwrUhCKga"></path><path d="M142.58 126.51L147.51 115.48L358.13 209.47L353.21 220.5L142.58 126.51Z" id="e7P6KqlzM"></path><path d="M345.48 207.12L355.98 201.16L449.72 366.12L439.22 372.09L345.48 207.12Z" id="cqYxXIc0e"></path><path d="M186.61 334.82L196.16 327.42L337.39 509.76L327.84 517.16L186.61 334.82Z" id="b26U6Nscw"></path><path d="M332.24 516.63L323.24 508.58L446.29 370.88L455.3 378.93L332.24 516.63Z" id="alZdZaH9v"></path><path d="M300.42 570.14L290.46 563.3L324.4 513.94L334.35 520.78L300.42 570.14Z" id="a4sVN2284R"></path><path d="M196.78 516.35L203.68 506.43L297.97 572L291.07 581.92L196.78 516.35Z" id="c18IE4VfSo"></path><path d="M456.95 383.86L457.27 371.79L572.08 374.81L571.76 386.88L456.95 383.86Z" id="b1pFaPCJV4"></path><path d="M589.63 380.73L577.96 377.6L595.68 311.49L607.35 314.62L589.63 380.73Z" id="dVMYVrJtI"></path><path d="M156.55 117.99C156.55 127.84 148.56 135.83 138.71 135.83C128.87 135.83 120.88 127.84 120.88 117.99C120.88 108.15 128.87 100.16 138.71 100.16C148.56 100.16 156.55 108.15 156.55 117.99Z" id="a6MH5VA6oI"></path><path d="M207.49 324.64C207.49 334.48 199.5 342.47 189.65 342.47C179.81 342.47 171.82 334.48 171.82 324.64C171.82 314.79 179.81 306.8 189.65 306.8C199.5 306.8 207.49 314.79 207.49 324.64Z" id="agrpfARWO"></path><path d="M373.66 212.29C373.66 222.13 365.67 230.12 355.83 230.12C345.98 230.12 337.99 222.13 337.99 212.29C337.99 202.44 345.98 194.45 355.83 194.45C365.67 194.45 373.66 202.44 373.66 212.29Z" id="a3rtL2Y5JD"></path><path d="M467.56 372.09C467.56 381.94 459.56 389.93 449.72 389.93C439.88 389.93 431.88 381.94 431.88 372.09C431.88 362.25 439.88 354.26 449.72 354.26C459.56 354.26 467.56 362.25 467.56 372.09Z" id="c2ynX28hR"></path><path d="M599.03 379.33C599.03 389.18 591.04 397.17 581.2 397.17C571.35 397.17 563.36 389.18 563.36 379.33C563.36 369.49 571.35 361.5 581.2 361.5C591.04 361.5 599.03 369.49 599.03 379.33Z" id="a3vdYjOhCz"></path><path d="M620.51 314.89C620.51 324.73 612.52 332.72 602.67 332.72C592.83 332.72 584.84 324.73 584.84 314.89C584.84 305.04 592.83 297.05 602.67 297.05C612.52 297.05 620.51 305.04 620.51 314.89Z" id="a1mAlTP8nE"></path><path d="M352.19 509.67C352.19 519.51 344.19 527.51 334.35 527.51C324.51 527.51 316.52 519.51 316.52 509.67C316.52 499.83 324.51 491.83 334.35 491.83C344.19 491.83 352.19 499.83 352.19 509.67Z" id="b2VMLeMfyn"></path><path d="M304 570.14C304 579.98 296.01 587.98 286.16 587.98C276.32 587.98 268.33 579.98 268.33 570.14C268.33 560.3 276.32 552.3 286.16 552.3C296.01 552.3 304 560.3 304 570.14Z" id="bZvdw1A5D"></path><path d="M220.71 511.68C220.71 521.53 212.72 529.52 202.87 529.52C193.03 529.52 185.04 521.53 185.04 511.68C185.04 501.84 193.03 493.85 202.87 493.85C212.72 493.85 220.71 501.84 220.71 511.68Z" id="i3QFxryppQ"></path></defs><g><g><g><use xlink:href="#jX2akG4Ks" opacity="1" fill="#141422" fill-opacity="1"></use></g><g><use xlink:href="#b2FpYgL2Mz" opacity="1" fill="#21a296" fill-opacity="1"></use></g><g><use xlink:href="#bdTktavUF" opacity="1" fill="#21a296" fill-opacity="1"></use></g><g><use xlink:href="#b929Qv2mJ" opacity="1" fill="#21a296" fill-opacity="1"></use></g><g><use xlink:href="#bCXzTfNZp" opacity="1" fill="#21a296" fill-opacity="1"></use></g><g><use xlink:href="#czmJBicxF" opacity="1" fill="#21a296" fill-opacity="1"></use></g><g><use xlink:href="#ah74UJb9" opacity="1" fill="#21a296" fill-opacity="1"></use></g><g><use xlink:href="#e2B5QSOCnv" opacity="1" fill="#21a296" fill-opacity="1"></use></g><g><use xlink:href="#c4sFxdaXDU" opacity="1" fill="#21a296" fill-opacity="1"></use></g><g><use xlink:href="#hccnOoI3T" opacity="1" fill="#21a296" fill-opacity="1"></use></g><g><use xlink:href="#gwrUhCKga" opacity="1" fill="#21a296" fill-opacity="1"></use></g><g><use xlink:href="#e7P6KqlzM" opacity="1" fill="#21a296" fill-opacity="1"></use></g><g><use xlink:href="#cqYxXIc0e" opacity="1" fill="#21a296" fill-opacity="1"></use></g><g><use xlink:href="#b26U6Nscw" opacity="1" fill="#21a296" fill-opacity="1"></use></g><g><use xlink:href="#alZdZaH9v" opacity="1" fill="#21a296" fill-opacity="1"></use></g><g><use xlink:href="#a4sVN2284R" opacity="1" fill="#21a296" fill-opacity="1"></use></g><g><use xlink:href="#c18IE4VfSo" opacity="1" fill="#21a296" fill-opacity="1"></use></g><g><use xlink:href="#b1pFaPCJV4" opacity="1" fill="#21a296" fill-opacity="1"></use></g><g><use xlink:href="#dVMYVrJtI" opacity="1" fill="#21a296" fill-opacity="1"></use></g><g><use xlink:href="#a6MH5VA6oI" opacity="1" fill="#ffffff" fill-opacity="1"></use></g><g><use xlink:href="#agrpfARWO" opacity="1" fill="#ffffff" fill-opacity="1"></use></g><g><use xlink:href="#a3rtL2Y5JD" opacity="1" fill="#ffffff" fill-opacity="1"></use></g><g><use xlink:href="#c2ynX28hR" opacity="1" fill="#ffffff" fill-opacity="1"></use></g><g><use xlink:href="#a3vdYjOhCz" opacity="1" fill="#ffffff" fill-opacity="1"></use></g><g><use xlink:href="#a1mAlTP8nE" opacity="1" fill="#ffffff" fill-opacity="1"></use></g><g><use xlink:href="#b2VMLeMfyn" opacity="1" fill="#ffffff" fill-opacity="1"></use></g><g><use xlink:href="#bZvdw1A5D" opacity="1" fill="#ffffff" fill-opacity="1"></use></g><g><use xlink:href="#i3QFxryppQ" opacity="1" fill="#ffffff" fill-opacity="1"></use></g></g></g></svg>