<?xml version="1.0" encoding="UTF-8" standalone="no"?>
<!DOCTYPE svg PUBLIC "-//W3C//DTD SVG 1.1//EN" "http://www.w3.org/Graphics/SVG/1.1/DTD/svg11.dtd">
<svg version="1.1" xmlns="http://www.w3.org/2000/svg" xmlns:xlink="http://www.w3.org/1999/xlink" preserveAspectRatio="xMidYMid meet" viewBox="0 0 640 640" width="640" height="640"><defs><path d="M321.01 636.31C146.8 636.31 5.37 494.57 5.37 320C5.37 145.43 146.8 3.69 321.01 3.69C495.21 3.69 636.64 145.43 636.64 320C636.64 494.57 495.21 636.31 321.01 636.31Z" id="aXGZ9OjN0"></path><path d="M142.19 141.55C130.5 141.55 121.01 132.04 121.01 120.32C121.01 108.61 130.5 99.1 142.19 99.1C153.89 99.1 163.38 108.61 163.38 120.32C163.38 132.04 153.89 141.55 142.19 141.55Z" id="aPVbOA0BD"></path><path d="M192.43 345.81C180.75 345.81 171.26 336.3 171.26 324.59C171.26 312.86 180.75 303.35 192.43 303.35C204.13 303.35 213.62 312.86 213.62 324.59C213.62 336.3 204.13 345.81 192.43 345.81Z" id="ePIGTNydo"></path><path d="M335.16 528.71C323.47 528.71 313.97 519.2 313.97 507.48C313.97 495.77 323.47 486.25 335.16 486.25C346.85 486.25 356.35 495.77 356.35 507.48C356.35 519.2 346.85 528.71 335.16 528.71Z" id="a1uSVO110w"></path><path d="M287.63 588.49C275.94 588.49 266.45 578.97 266.45 567.25C266.45 555.54 275.94 546.02 287.63 546.02C299.33 546.02 308.82 555.54 308.82 567.25C308.82 578.97 299.33 588.49 287.63 588.49Z" id="bKlqIvrfW"></path><path d="M205.47 530.7C193.79 530.7 184.3 521.19 184.3 509.47C184.3 497.76 193.79 488.25 205.47 488.25C217.17 488.25 226.66 497.76 226.66 509.47C226.66 521.19 217.17 530.7 205.47 530.7Z" id="ac4bfkUJg"></path><path d="M356.35 234.75C344.65 234.75 335.16 225.25 335.16 213.53C335.16 201.81 344.65 192.3 356.35 192.3C368.04 192.3 377.53 201.81 377.53 213.53C377.53 225.25 368.04 234.75 356.35 234.75Z" id="c11z2nLIQi"></path><path d="M448.96 392.72C437.27 392.72 427.77 383.21 427.77 371.49C427.77 359.78 437.27 350.27 448.96 350.27C460.65 350.27 470.15 359.78 470.15 371.49C470.15 383.21 460.65 392.72 448.96 392.72Z" id="bxUzQPb8M"></path><path d="M578.65 399.88C566.95 399.88 557.46 390.37 557.46 378.65C557.46 366.93 566.95 357.42 578.65 357.42C590.33 357.42 599.82 366.93 599.82 378.65C599.82 390.37 590.33 399.88 578.65 399.88Z" id="b1j1R3iMch"></path><path d="M599.82 336.06C588.13 336.06 578.65 326.54 578.65 314.83C578.65 303.12 588.13 293.6 599.82 293.6C611.52 293.6 621.01 303.12 621.01 314.83C621.01 326.54 611.52 336.06 599.82 336.06Z" id="aJH2Gk0d2"></path><path d="M152.76 132.83L193.75 312.28L182.13 314.95L141.15 135.49L152.76 132.83Z" id="a2tLpx0rx"></path><path d="M150.87 117.84L358.62 210.74L353.76 221.65L146.01 128.74L150.87 117.84Z" id="cQ88gSinT"></path><path d="M356.5 202.53L448.96 365.59L438.6 371.49L346.14 208.42L356.5 202.53Z" id="d3gMcaIKK1"></path><path d="M198.85 327.33L338.16 507.57L328.74 514.89L189.44 334.65L198.85 327.33Z" id="i2HZYHAbO2"></path><path d="M324.2 506.4L445.58 370.29L454.46 378.25L333.08 514.36L324.2 506.4Z" id="aMlh4AuHJ"></path><path d="M291.87 560.49L325.35 511.7L335.16 518.46L301.69 567.25L291.87 560.49Z" id="cu6mIpfl7"></path><path d="M206.27 504.28L299.28 569.09L292.47 578.9L199.47 514.09L206.27 504.28Z" id="a15hCLRD5W"></path><path d="M456.41 371.19L569.65 374.18L569.33 386.11L456.09 383.12L456.41 371.19Z" id="e4iEdi1cB5"></path><path d="M575.45 376.94L592.93 311.59L604.44 314.68L586.96 380.03L575.45 376.94Z" id="bkj9Y8bxl"></path><path d="M142.19 137.95C132.48 137.95 124.6 130.06 124.6 120.32C124.6 110.59 132.48 102.7 142.19 102.7C151.9 102.7 159.78 110.59 159.78 120.32C159.78 130.06 151.9 137.95 142.19 137.95Z" id="aR2xvVxWM"></path><path d="M192.43 342.21C182.73 342.21 174.85 334.31 174.85 324.59C174.85 314.85 182.73 306.95 192.43 306.95C202.15 306.95 210.03 314.85 210.03 324.59C210.03 334.31 202.15 342.21 192.43 342.21Z" id="f173lPyCZl"></path><path d="M356.35 231.16C346.63 231.16 338.75 223.26 338.75 213.53C338.75 203.8 346.63 195.9 356.35 195.9C366.05 195.9 373.94 203.8 373.94 213.53C373.94 223.26 366.05 231.16 356.35 231.16Z" id="b1kpUH7tku"></path><path d="M448.96 389.12C439.25 389.12 431.36 381.23 431.36 371.49C431.36 361.76 439.25 353.86 448.96 353.86C458.66 353.86 466.56 361.76 466.56 371.49C466.56 381.23 458.66 389.12 448.96 389.12Z" id="g3pvPcX4KO"></path><path d="M578.65 396.28C568.93 396.28 561.05 388.38 561.05 378.65C561.05 368.92 568.93 361.02 578.65 361.02C588.35 361.02 596.23 368.92 596.23 378.65C596.23 388.38 588.35 396.28 578.65 396.28Z" id="i3MPY4zCd2"></path><path d="M599.82 332.57C590.12 332.57 582.24 324.68 582.24 314.95C582.24 305.21 590.12 297.31 599.82 297.31C609.54 297.31 617.42 305.21 617.42 314.95C617.42 324.68 609.54 332.57 599.82 332.57Z" id="a35NGFP2Z2"></path><path d="M335.16 525.12C325.46 525.12 317.57 517.21 317.57 507.48C317.57 497.76 325.46 489.85 335.16 489.85C344.87 489.85 352.76 497.76 352.76 507.48C352.76 517.21 344.87 525.12 335.16 525.12Z" id="b1eWMwIoPO"></path><path d="M287.63 584.89C277.92 584.89 270.04 576.98 270.04 567.25C270.04 557.53 277.92 549.62 287.63 549.62C297.34 549.62 305.22 557.53 305.22 567.25C305.22 576.98 297.34 584.89 287.63 584.89Z" id="c1cAoYwDat"></path><path d="M205.47 527.1C195.77 527.1 187.89 519.21 187.89 509.47C187.89 499.74 195.77 491.84 205.47 491.84C215.19 491.84 223.07 499.74 223.07 509.47C223.07 519.21 215.19 527.1 205.47 527.1Z" id="acdBtYbIF"></path></defs><g><g><g><use xlink:href="#aXGZ9OjN0" opacity="1" fill="#141422" fill-opacity="1"></use><g><use xlink:href="#aXGZ9OjN0" opacity="1" fill-opacity="0" stroke="#ffffff" stroke-width="4" stroke-opacity="1"></use></g></g><g><use xlink:href="#aPVbOA0BD" opacity="1" fill="#21a296" fill-opacity="1"></use><g><use xlink:href="#aPVbOA0BD" opacity="1" fill-opacity="0" stroke="#000000" stroke-width="1" stroke-opacity="0"></use></g></g><g><use xlink:href="#ePIGTNydo" opacity="1" fill="#21a296" fill-opacity="1"></use><g><use xlink:href="#ePIGTNydo" opacity="1" fill-opacity="0" stroke="#000000" stroke-width="1" stroke-opacity="0"></use></g></g><g><use xlink:href="#a1uSVO110w" opacity="1" fill="#21a296" fill-opacity="1"></use><g><use xlink:href="#a1uSVO110w" opacity="1" fill-opacity="0" stroke="#000000" stroke-width="1" stroke-opacity="0"></use></g></g><g><use xlink:href="#bKlqIvrfW" opacity="1" fill="#21a296" fill-opacity="1"></use><g><use xlink:href="#bKlqIvrfW" opacity="1" fill-opacity="0" stroke="#000000" stroke-width="1" stroke-opacity="0"></use></g></g><g><use xlink:href="#ac4bfkUJg" opacity="1" fill="#21a296" fill-opacity="1"></use><g><use xlink:href="#ac4bfkUJg" opacity="1" fill-opacity="0" stroke="#000000" stroke-width="1" stroke-opacity="0"></use></g></g><g><use xlink:href="#c11z2nLIQi" opacity="1" fill="#21a296" fill-opacity="1"></use><g><use xlink:href="#c11z2nLIQi" opacity="1" fill-opacity="0" stroke="#000000" stroke-width="1" stroke-opacity="0"></use></g></g><g><use xlink:href="#bxUzQPb8M" opacity="1" fill="#21a296" fill-opacity="1"></use><g><use xlink:href="#bxUzQPb8M" opacity="1" fill-opacity="0" stroke="#000000" stroke-width="1" stroke-opacity="0"></use></g></g><g><use xlink:href="#b1j1R3iMch" opacity="1" fill="#21a296" fill-opacity="1"></use><g><use xlink:href="#b1j1R3iMch" opacity="1" fill-opacity="0" stroke="#000000" stroke-width="1" stroke-opacity="0"></use></g></g><g><use xlink:href="#aJH2Gk0d2" opacity="1" fill="#21a296" fill-opacity="1"></use><g><use xlink:href="#aJH2Gk0d2" opacity="1" fill-opacity="0" stroke="#000000" stroke-width="1" stroke-opacity="0"></use></g></g><g><use xlink:href="#a2tLpx0rx" opacity="1" fill="#21a296" fill-opacity="1"></use><g><use xlink:href="#a2tLpx0rx" opacity="1" fill-opacity="0" stroke="#000000" stroke-width="1" stroke-opacity="0"></use></g></g><g><use xlink:href="#cQ88gSinT" opacity="1" fill="#21a296" fill-opacity="1"></use><g><use xlink:href="#cQ88gSinT" opacity="1" fill-opacity="0" stroke="#000000" stroke-width="1" stroke-opacity="0"></use></g></g><g><use xlink:href="#d3gMcaIKK1" opacity="1" fill="#21a296" fill-opacity="1"></use><g><use xlink:href="#d3gMcaIKK1" opacity="1" fill-opacity="0" stroke="#000000" stroke-width="1" stroke-opacity="0"></use></g></g><g><use xlink:href="#i2HZYHAbO2" opacity="1" fill="#21a296" fill-opacity="1"></use><g><use xlink:href="#i2HZYHAbO2" opacity="1" fill-opacity="0" stroke="#000000" stroke-width="1" stroke-opacity="0"></use></g></g><g><use xlink:href="#aMlh4AuHJ" opacity="1" fill="#21a296" fill-opacity="1"></use><g><use xlink:href="#aMlh4AuHJ" opacity="1" fill-opacity="0" stroke="#000000" stroke-width="1" stroke-opacity="0"></use></g></g><g><use xlink:href="#cu6mIpfl7" opacity="1" fill="#21a296" fill-opacity="1"></use><g><use xlink:href="#cu6mIpfl7" opacity="1" fill-opacity="0" stroke="#000000" stroke-width="1" stroke-opacity="0"></use></g></g><g><use xlink:href="#a15hCLRD5W" opacity="1" fill="#21a296" fill-opacity="1"></use><g><use xlink:href="#a15hCLRD5W" opacity="1" fill-opacity="0" stroke="#000000" stroke-width="1" stroke-opacity="0"></use></g></g><g><use xlink:href="#e4iEdi1cB5" opacity="1" fill="#21a296" fill-opacity="1"></use><g><use xlink:href="#e4iEdi1cB5" opacity="1" fill-opacity="0" stroke="#000000" stroke-width="1" stroke-opacity="0"></use></g></g><g><use xlink:href="#bkj9Y8bxl" opacity="1" fill="#21a296" fill-opacity="1"></use><g><use xlink:href="#bkj9Y8bxl" opacity="1" fill-opacity="0" stroke="#000000" stroke-width="1" stroke-opacity="0"></use></g></g><g><use xlink:href="#aR2xvVxWM" opacity="1" fill="#ffffff" fill-opacity="1"></use><g><use xlink:href="#aR2xvVxWM" opacity="1" fill-opacity="0" stroke="#000000" stroke-width="1" stroke-opacity="0"></use></g></g><g><use xlink:href="#f173lPyCZl" opacity="1" fill="#ffffff" fill-opacity="1"></use><g><use xlink:href="#f173lPyCZl" opacity="1" fill-opacity="0" stroke="#000000" stroke-width="1" stroke-opacity="0"></use></g></g><g><use xlink:href="#b1kpUH7tku" opacity="1" fill="#ffffff" fill-opacity="1"></use><g><use xlink:href="#b1kpUH7tku" opacity="1" fill-opacity="0" stroke="#000000" stroke-width="1" stroke-opacity="0"></use></g></g><g><use xlink:href="#g3pvPcX4KO" opacity="1" fill="#ffffff" fill-opacity="1"></use><g><use xlink:href="#g3pvPcX4KO" opacity="1" fill-opacity="0" stroke="#000000" stroke-width="1" stroke-opacity="0"></use></g></g><g><use xlink:href="#i3MPY4zCd2" opacity="1" fill="#ffffff" fill-opacity="1"></use><g><use xlink:href="#i3MPY4zCd2" opacity="1" fill-opacity="0" stroke="#000000" stroke-width="1" stroke-opacity="0"></use></g></g><g><use xlink:href="#a35NGFP2Z2" opacity="1" fill="#ffffff" fill-opacity="1"></use><g><use xlink:href="#a35NGFP2Z2" opacity="1" fill-opacity="0" stroke="#000000" stroke-width="1" stroke-opacity="0"></use></g></g><g><use xlink:href="#b1eWMwIoPO" opacity="1" fill="#ffffff" fill-opacity="1"></use><g><use xlink:href="#b1eWMwIoPO" opacity="1" fill-opacity="0" stroke="#000000" stroke-width="1" stroke-opacity="0"></use></g></g><g><use xlink:href="#c1cAoYwDat" opacity="1" fill="#ffffff" fill-opacity="1"></use><g><use xlink:href="#c1cAoYwDat" opacity="1" fill-opacity="0" stroke="#000000" stroke-width="1" stroke-opacity="0"></use></g></g><g><use xlink:href="#acdBtYbIF" opacity="1" fill="#ffffff" fill-opacity="1"></use><g><use xlink:href="#acdBtYbIF" opacity="1" fill-opacity="0" stroke="#000000" stroke-width="1" stroke-opacity="0"></use></g></g></g></g></svg>